<svg xmlns="http://www.w3.org/2000/svg" viewBox="0 0 432.85 210.42"><defs><style>.cls-1{fill:#15578b;}.cls-2{fill:#aadcc3;}.cls-3{fill:#35729b;}.cls-4{fill:#89cbaf;}</style></defs><g id="Layer_2" data-name="Layer 2"><g id="Layer_1-2" data-name="Layer 1"><path class="cls-1" d="M279.24,107.73a43,43,0,0,1-12.08-1.51A39.12,39.12,0,0,0,256,104.83a57.59,57.59,0,0,0-11.29,1,60.17,60.17,0,0,1-11.93,1,1.94,1.94,0,1,1,0-3.87,57.55,57.55,0,0,0,11.28-1A61.18,61.18,0,0,1,256,101a43,43,0,0,1,12.07,1.5,39.15,39.15,0,0,0,11.15,1.39,23.43,23.43,0,0,0,10.84-2.35,27,27,0,0,1,12.37-2.67c5.84,0,8.81.11,11.68.21s5.77.21,11.54.21,8.79.06,11.65.12,5.79.12,11.57.12a32,32,0,0,1,12.25,2.14,28.4,28.4,0,0,0,11,1.93,81.12,81.12,0,0,0,11.37-.69,85.41,85.41,0,0,1,11.85-.72,1.93,1.93,0,1,1,0,3.86,81.29,81.29,0,0,0-11.38.69,83.56,83.56,0,0,1-11.84.72,32,32,0,0,1-12.25-2.14,28.4,28.4,0,0,0-11-1.93c-5.82,0-8.78-.06-11.65-.12s-5.78-.12-11.57-.12-8.8-.1-11.68-.21-5.77-.21-11.54-.21a23.42,23.42,0,0,0-10.84,2.36A27,27,0,0,1,279.24,107.73Z"/><path class="cls-1" d="M312,102.68a1.45,1.45,0,0,1-1.45-1.45V65.34a1.45,1.45,0,0,1,2.9,0v35.89A1.45,1.45,0,0,1,312,102.68Z"/><path class="cls-2" d="M401.64,83.61c16.88-13.86,21.16-39.92,29.92-48.69C418.73,32.85,398.34,16.06,377,18c-45.2,23.09-53.82,57-64.72,61.77C323.15,75,353.3,94.26,401.64,83.61Z"/><path class="cls-3" d="M372.12,88.15c-16.69,0-30.24-3.06-40.41-5.35-8.9-2-15.33-3.45-18.94-1.86a1.29,1.29,0,0,1-1.7-.66,1.39,1.39,0,0,1-.11-.52,1.3,1.3,0,0,1,.77-1.18c3.34-1.47,6.64-6.23,11.2-12.81,9.25-13.33,23.21-33.48,53.46-48.93a1.22,1.22,0,0,1,.47-.13c13.89-1.26,27.49,5.25,38.43,10.49,6.41,3.07,12,5.72,16.48,6.45a1.3,1.3,0,0,1,1,.87,1.32,1.32,0,0,1-.32,1.31c-3.35,3.36-6.08,9.53-9.25,16.68-4.65,10.52-10.44,23.62-20.77,32.1a1.18,1.18,0,0,1-.54.26A138.1,138.1,0,0,1,372.12,88.15Zm-55-10.45c4,.06,9,1.2,15.17,2.59,15.39,3.47,38.62,8.7,68.78,2.13,9.7-8.09,15.07-20.23,19.81-30.95,2.81-6.35,5.29-11.95,8.27-15.75-4.37-1.13-9.34-3.51-15-6.2C403,24.19,390.43,18.16,377.34,19.25c-29.52,15.14-43.22,34.9-52.29,48A88.62,88.62,0,0,1,317.11,77.7Zm84.53,5.91Z"/><path class="cls-4" d="M349.79,84c10.55-1.77,8.53-16.87,7.73-18.67-3.22-6.11-10-7.89-20.6-6.11-5.93,1-9.34,2.9-11.59,6.44A75.89,75.89,0,0,1,316,77.9S324.69,80.15,349.79,84Z"/><path class="cls-1" d="M316.73,79a1.29,1.29,0,0,1-.62-2.42c2.53-1.39,62.07-33.93,82.26-30.75a1.29,1.29,0,1,1-.4,2.54c-19.33-3-80,30.13-80.62,30.47A1.25,1.25,0,0,1,316.73,79Z"/><path class="cls-2" d="M257.69,37.29c-8-12.74-6-28.09-9.6-36,8,3.49,23.28,1.36,36.09,9.25,23.2,27.78,22.47,48.75,28.41,54.64C306.65,59.29,285,59.49,257.69,37.29Z"/><path class="cls-3" d="M312.59,66.46a1.28,1.28,0,0,1-.91-.37c-1.87-1.86-5.79-3.13-11.2-4.89-10.26-3.34-25.77-8.39-43.6-22.91a1.22,1.22,0,0,1-.28-.32c-5.05-8-6.26-17.2-7.23-24.55-.61-4.68-1.14-8.71-2.45-11.6a1.28,1.28,0,0,1,.26-1.44,1.27,1.27,0,0,1,1.43-.27c2.91,1.27,6.94,1.77,11.62,2.34,7.36.89,16.54,2,24.63,7a1.14,1.14,0,0,1,.31.27c15.29,18.31,20.28,33.65,23.58,43.8,1.69,5.18,2.9,8.92,4.75,10.74a1.31,1.31,0,0,1,.38.92,1.27,1.27,0,0,1-.38.9A1.25,1.25,0,0,1,312.59,66.46Zm-53.92-30c17.39,14.12,32.56,19.06,42.61,22.33,2.93,1,5.45,1.77,7.52,2.65-.83-2-1.6-4.34-2.5-7.09-3.23-9.93-8.1-24.92-23-42.78-7.57-4.6-16-5.62-23.42-6.53a68.78,68.78,0,0,1-9.69-1.61,69.13,69.13,0,0,1,1.7,9.69C252.9,20.5,254,28.9,258.67,36.42Z"/><path class="cls-4" d="M287,54.08c-6.18-3.27-8.92-5.14-7.2-9.81s9.38-10.09,15.25-6.28c11.91,7.72,13.51,23.17,13.51,23.17S299,60.4,287,54.08Z"/><path class="cls-1" d="M310.45,64.83a1.28,1.28,0,0,1-1-.51c-.3-.39-29.94-39.44-43.24-43a1.29,1.29,0,0,1,.68-2.48c14.14,3.84,43.37,42.34,44.61,44a1.28,1.28,0,0,1-.25,1.8A1.26,1.26,0,0,1,310.45,64.83Z"/><path class="cls-4" d="M189.86,91.28A11.05,11.05,0,0,0,193.67,95a10.87,10.87,0,0,0,5.58,1.39A10.61,10.61,0,0,0,204.76,95a11.26,11.26,0,0,0,3.79-3.73,16.56,16.56,0,0,0,2.11-5.4,32.67,32.67,0,0,0,0-12.87,16.79,16.79,0,0,0-2.11-5.41,11,11,0,0,0-3.79-3.76,10.64,10.64,0,0,0-5.51-1.39,10.9,10.9,0,0,0-5.58,1.39,11.08,11.08,0,0,0-3.82,3.76,17.11,17.11,0,0,0-2.1,5.41,32.18,32.18,0,0,0,0,12.87A16.65,16.65,0,0,0,189.86,91.28ZM192.1,79.5a28.8,28.8,0,0,1,.44-5.12,14.21,14.21,0,0,1,1.33-4.1,7.23,7.23,0,0,1,2.21-2.62,5.34,5.34,0,0,1,3.17-.91,5.11,5.11,0,0,1,3.09.91,7.31,7.31,0,0,1,2.2,2.62,14.42,14.42,0,0,1,1.33,4.1,30.7,30.7,0,0,1,0,10.24,14.35,14.35,0,0,1-1.33,4.09,7.26,7.26,0,0,1-2.2,2.63,5.11,5.11,0,0,1-3.09.91,5.28,5.28,0,0,1-3.17-.92,7.15,7.15,0,0,1-2.21-2.62,14,14,0,0,1-1.33-4.09A28.8,28.8,0,0,1,192.1,79.5Z"/><polygon class="cls-4" points="218.5 100.9 223.45 100.9 223.45 60.8 214.85 60.8 214.85 64.9 218.5 64.9 218.5 100.9"/><path class="cls-4" d="M26.2,143.09a33.39,33.39,0,0,1-2.94-2.47,30.89,30.89,0,0,1-2.54-2.73,15.28,15.28,0,0,1-1.84-2.82,10.31,10.31,0,0,1-.6-1.29,10.77,10.77,0,0,1-.39-1.25,9.48,9.48,0,0,1-.22-1.38c-.05-.5-.07-1.08-.07-1.71v-6.7h9.75v-4.15H2.7v4.15h9.85v6.75a15.8,15.8,0,0,1-.33,3.2,11.82,11.82,0,0,1-1,2.87,21.94,21.94,0,0,1-1.6,2.72,25.27,25.27,0,0,1-2.3,2.83,28.79,28.79,0,0,1-2.92,2.65A17.48,17.48,0,0,1,1,145.84l-1,.47,2.47,4,.81-.4a21.87,21.87,0,0,0,3.44-2.12,32.72,32.72,0,0,0,3.48-3,35.56,35.56,0,0,0,3.22-3.65c.66-.87,1.27-1.76,1.83-2.66.39.57.84,1.16,1.32,1.75a33.17,33.17,0,0,0,3,3.22,38.67,38.67,0,0,0,3.53,3,24.19,24.19,0,0,0,4,2.45l.8.39,2.28-3.56-.87-.53C28.27,144.58,27.24,143.87,26.2,143.09Z"/><polygon class="cls-4" points="37.5 115.39 28.9 115.39 28.9 119.49 32.55 119.49 32.55 155.49 37.5 155.49 37.5 135.14 44.8 135.14 44.8 131.04 37.5 131.04 37.5 115.39"/><polygon class="cls-4" points="52.45 135.39 67.45 135.39 67.45 117.64 46.35 117.64 46.35 121.84 62.5 121.84 62.5 131.14 44.9 131.14 44.9 135.39 47.45 135.39 47.45 150.95 71.3 149.69 71.3 145.49 52.45 146.49 52.45 135.39"/><polygon class="cls-4" points="79.65 115.34 71.05 115.34 71.05 119.44 74.7 119.44 74.7 155.44 79.65 155.44 79.65 136.09 86.95 136.09 86.95 131.94 79.65 131.94 79.65 115.34"/><polygon class="cls-4" points="93.2 115.94 93.2 133.04 124 133.04 124 128.89 98.2 128.89 98.2 115.94 93.2 115.94"/><polygon class="cls-4" points="97.95 145.44 92.95 145.44 92.95 160.54 124.95 160.54 124.95 156.39 97.95 156.39 97.95 145.44"/><rect class="cls-4" x="87" y="137.19" width="42.15" height="4.2"/><path class="cls-1" d="M25.44,24.48a17.23,17.23,0,0,0-5.08,5.91,17.58,17.58,0,0,0-1.95,8.41,17,17,0,0,0,1.83,7.88,18.54,18.54,0,0,0,4.84,5.91A20.68,20.68,0,0,0,32,56.21a29.29,29.29,0,0,0,16,.13,21.48,21.48,0,0,0,7-3.32,16.89,16.89,0,0,0,5-5.88A17.72,17.72,0,0,0,62,38.8a17.64,17.64,0,0,0-2-8.41,17.08,17.08,0,0,0-5.15-5.93,21,21,0,0,0-3.58-2.06H64V56.8c-9.5.09-16.51,1.75-21.43,5.06a17.24,17.24,0,0,0-8.07,15A17.35,17.35,0,0,0,42.58,92c5.05,3.4,12.32,5.06,22.23,5.06S82,95.44,87,92A17.35,17.35,0,0,0,95.1,76.9a17.24,17.24,0,0,0-8.07-15c-.5-.34-1-.66-1.57-1H95V1.7H78.81V12.1H83V26.5H76V2.2H59.81V12H46.1V1.3H34V12H14.31V22.4H29A19.88,19.88,0,0,0,25.44,24.48Zm5,14.32a8.79,8.79,0,0,1,.83-4.16,6.72,6.72,0,0,1,2.09-2.41,8.89,8.89,0,0,1,3.08-1.3,16.75,16.75,0,0,1,3.69-.43,17.17,17.17,0,0,1,3.8.43A8.8,8.8,0,0,1,47,32.27a7.08,7.08,0,0,1,2.18,2.44A8.56,8.56,0,0,1,50,38.8a8.85,8.85,0,0,1-.8,4.13,6.21,6.21,0,0,1-2,2.33,8.7,8.7,0,0,1-3.1,1.31,17.69,17.69,0,0,1-7.9,0,8,8,0,0,1-3-1.38,7.13,7.13,0,0,1-2.05-2.45A8.51,8.51,0,0,1,30.41,38.8ZM76,57.7V36.9h7V59.71A33.36,33.36,0,0,0,76,57.7ZM47.38,80.78a9.56,9.56,0,0,1,0-8,7,7,0,0,1,2.7-2.76A18.17,18.17,0,0,1,55.77,68,46.36,46.36,0,0,1,65,67.2a45.4,45.4,0,0,1,9.17.78,17.06,17.06,0,0,1,5.51,2,6.85,6.85,0,0,1,2.57,2.75,10.09,10.09,0,0,1,0,8.06,7.56,7.56,0,0,1-2.64,2.89,16.16,16.16,0,0,1-5.47,2.15A42.66,42.66,0,0,1,65,86.7a43.4,43.4,0,0,1-9.2-.83,17.2,17.2,0,0,1-5.66-2.18A7.63,7.63,0,0,1,47.38,80.78Z"/><path class="cls-1" d="M185.8,47h-37V40.9h24.8V2.3h-12V14H123.8V2.3h-12V40.9h25V47H99.6V57.4h86.2ZM161.6,24.4v6.1H123.8V24.4Z"/><polygon class="cls-1" points="199.23 146.9 225.65 146.9 225.65 136.34 173.96 136.34 173.96 60.85 110.16 60.85 110.16 72.25 162.2 72.25 162.2 146.9 187.23 146.9 187.23 152.82 149.93 152.82 149.93 163.22 236.13 163.22 236.13 152.82 199.23 152.82 199.23 146.9"/><polygon class="cls-1" points="174.83 193.92 225.13 193.92 225.13 167.52 161.73 167.52 161.73 177.92 213.13 177.92 213.13 183.52 158.03 183.52 158.03 193.82 162.83 193.82 162.83 210.42 227.93 210.42 227.93 200.02 174.83 200.02 174.83 193.92"/><polygon class="cls-1" points="293.93 126.02 301.23 126.02 301.23 198.02 313.13 198.02 313.13 115.82 293.93 115.82 293.93 126.02"/><path class="cls-1" d="M283.18,129.88a23.37,23.37,0,0,0-7.92-7.84,22.22,22.22,0,0,0-11.53-2.92A22.73,22.73,0,0,0,252.06,122a23.14,23.14,0,0,0-8,7.85A35.08,35.08,0,0,0,239.74,141a65.91,65.91,0,0,0,0,26.15,34.4,34.4,0,0,0,4.35,11.12,23.19,23.19,0,0,0,8,7.79A22.61,22.61,0,0,0,263.73,189a22.18,22.18,0,0,0,11.53-2.93,23.43,23.43,0,0,0,7.91-7.78,34.08,34.08,0,0,0,4.34-11.12,65.42,65.42,0,0,0,0-26.15A34.89,34.89,0,0,0,283.18,129.88Zm-13.86,47.2a9.21,9.21,0,0,1-5.59,1.64,9.64,9.64,0,0,1-5.77-1.65,13.48,13.48,0,0,1-4.12-4.89,27.88,27.88,0,0,1-2.56-7.9,60,60,0,0,1,0-20.13,27.88,27.88,0,0,1,2.56-7.9,13.56,13.56,0,0,1,4.12-4.89,9.71,9.71,0,0,1,5.77-1.64,9.2,9.2,0,0,1,5.59,1.63,13.77,13.77,0,0,1,4.1,4.9,28.2,28.2,0,0,1,2.56,7.9,60.07,60.07,0,0,1,0,20.14,28.24,28.24,0,0,1-2.56,7.89A13.77,13.77,0,0,1,269.32,177.08Z"/><polygon class="cls-1" points="383.03 116.92 383.03 127.12 390.33 127.12 390.33 147.22 371.83 147.22 371.83 157.42 390.33 157.42 390.33 199.12 402.23 199.12 402.23 116.92 383.03 116.92"/><polygon class="cls-1" points="339.43 157.92 367.63 157.92 367.63 147.42 339.43 147.42 339.43 131.02 370.63 131.02 370.63 120.62 322.33 120.62 322.33 131.02 327.43 131.02 327.43 188.17 376.13 185.67 376.13 175.26 339.43 177.16 339.43 157.92"/><path class="cls-1" d="M372.12,88.15c-16.69,0-30.24-3.06-40.41-5.35-8.9-2-15.33-3.45-18.94-1.86a1.29,1.29,0,0,1-1.7-.66,1.39,1.39,0,0,1-.11-.52,1.3,1.3,0,0,1,.77-1.18c3.34-1.47,6.64-6.23,11.2-12.81,9.25-13.33,23.21-33.48,53.46-48.93a1.22,1.22,0,0,1,.47-.13c13.89-1.26,27.49,5.25,38.43,10.49,6.41,3.07,12,5.72,16.48,6.45a1.3,1.3,0,0,1,1,.87,1.32,1.32,0,0,1-.32,1.31c-3.35,3.36-6.08,9.53-9.25,16.68-4.65,10.52-10.44,23.62-20.77,32.1a1.18,1.18,0,0,1-.54.26A138.1,138.1,0,0,1,372.12,88.15Zm-55-10.45c4,.06,9,1.2,15.17,2.59,15.39,3.47,38.62,8.7,68.78,2.13,9.7-8.09,15.07-20.23,19.81-30.95,2.81-6.35,5.29-11.95,8.27-15.75-4.37-1.13-9.34-3.51-15-6.2C403,24.19,390.43,18.16,377.34,19.25c-29.52,15.14-43.22,34.9-52.29,48A88.62,88.62,0,0,1,317.11,77.7Zm84.53,5.91Z"/><path class="cls-1" d="M312.59,66.46a1.28,1.28,0,0,1-.91-.37c-1.87-1.86-5.79-3.13-11.2-4.89-10.26-3.34-25.77-8.39-43.6-22.91a1.22,1.22,0,0,1-.28-.32c-5.05-8-6.26-17.2-7.23-24.55-.61-4.68-1.14-8.71-2.45-11.6a1.28,1.28,0,0,1,.26-1.44,1.27,1.27,0,0,1,1.43-.27c2.91,1.27,6.94,1.77,11.62,2.34,7.36.89,16.54,2,24.63,7a1.14,1.14,0,0,1,.31.27c15.29,18.31,20.28,33.65,23.58,43.8,1.69,5.18,2.9,8.92,4.75,10.74a1.31,1.31,0,0,1,.38.92,1.27,1.27,0,0,1-.38.9A1.25,1.25,0,0,1,312.59,66.46Zm-53.92-30c17.39,14.12,32.56,19.06,42.61,22.33,2.93,1,5.45,1.77,7.52,2.65-.83-2-1.6-4.34-2.5-7.09-3.23-9.93-8.1-24.92-23-42.78-7.57-4.6-16-5.62-23.42-6.53a68.78,68.78,0,0,1-9.69-1.61,69.13,69.13,0,0,1,1.7,9.69C252.9,20.5,254,28.9,258.67,36.42Z"/></g></g></svg>